<svg width="64" height="64" viewBox="0 0 64 64" fill="none" xmlns="http://www.w3.org/2000/svg">
<g clip-path="url(#clip0_10333_21920)">
<g clip-path="url(#clip1_10333_21920)">
<path d="M59.4284 31.9999C59.4284 16.8515 47.1482 4.57129 31.9999 4.57129C16.8515 4.57129 4.57129 16.8515 4.57129 31.9999C4.57129 47.1482 16.8515 59.4284 31.9999 59.4284C47.1482 59.4284 59.4284 47.1482 59.4284 31.9999Z" fill="#D7E4F7"/>
<g clip-path="url(#clip2_10333_21920)">
<path d="M41.4219 22.75H40.7188V21.1094C40.7188 19.9463 39.7725 19 38.6094 19C37.4463 19 36.5 19.9463 36.5 21.1094V21.6852C36.5 22.4139 36.0107 23.0626 35.3101 23.2627L34.625 23.4585V23.4531C34.625 23.0648 34.3102 22.75 33.9219 22.75H31.1094C30.7211 22.75 30.4062 23.0648 30.4062 23.4531V26.5938H22.1094C20.9463 26.5938 20 27.54 20 28.7031V42.2969C20 42.5562 20.1427 42.7945 20.3713 42.9168C20.4753 42.9725 20.5893 43 20.7031 43C20.8395 43 20.9755 42.9603 21.0931 42.8819L23.7285 41.125H37.1094C38.2725 41.125 39.2188 40.1787 39.2188 39.0156V31.6562H41.4219C42.8435 31.6562 44 30.4997 44 29.0781V25.3281C44 23.9065 42.8435 22.75 41.4219 22.75ZM31.8125 24.1562H33.2188V30.25H31.8125V24.1562ZM37.8125 39.0156C37.8125 39.4033 37.4971 39.7188 37.1094 39.7188H23.5156C23.3768 39.7188 23.2411 39.7599 23.1256 39.8369L21.4062 40.9831V28.7031C21.4062 28.3154 21.7217 28 22.1094 28H30.4062V30.9531C30.4062 31.3414 30.7211 31.6562 31.1094 31.6562H33.9219C34.2831 31.6562 34.5804 31.3837 34.6201 31.0331C35.2465 31.4326 35.983 31.6562 36.749 31.6562H37.8125V39.0156ZM42.5938 29.0781C42.5938 29.7243 42.068 30.25 41.4219 30.25H36.749C35.894 30.25 35.0956 29.8187 34.625 29.1135V24.921L35.6964 24.6149C36.9975 24.2432 37.9062 23.0384 37.9062 21.6852V21.1094C37.9062 20.7217 38.2217 20.4062 38.6094 20.4062C38.9971 20.4062 39.3125 20.7217 39.3125 21.1094V23.4531C39.3125 23.8414 39.6273 24.1562 40.0156 24.1562H41.4219C42.068 24.1562 42.5938 24.682 42.5938 25.3281V29.0781Z" fill="#3577D5"/>
<path d="M23.5156 32.2188H28.2031C28.5914 32.2188 28.9062 31.9039 28.9062 31.5156C28.9062 31.1273 28.5914 30.8125 28.2031 30.8125H23.5156C23.1273 30.8125 22.8125 31.1273 22.8125 31.5156C22.8125 31.9039 23.1273 32.2188 23.5156 32.2188Z" fill="#3577D5"/>
<path d="M35.7031 33.625H23.5156C23.1273 33.625 22.8125 33.9398 22.8125 34.3281C22.8125 34.7164 23.1273 35.0312 23.5156 35.0312H35.7031C36.0914 35.0312 36.4062 34.7164 36.4062 34.3281C36.4062 33.9398 36.0914 33.625 35.7031 33.625Z" fill="#3577D5"/>
<path d="M35.7031 36.4375H23.5156C23.1273 36.4375 22.8125 36.7523 22.8125 37.1406C22.8125 37.5289 23.1273 37.8438 23.5156 37.8438H35.7031C36.0914 37.8438 36.4062 37.5289 36.4062 37.1406C36.4062 36.7523 36.0914 36.4375 35.7031 36.4375Z" fill="#3577D5"/>
</g>
<path d="M59.8571 32.4286C59.8571 17.2802 47.577 5 32.4286 5C17.2802 5 5 17.2802 5 32.4286C5 47.577 17.2802 59.8571 32.4286 59.8571C47.577 59.8571 59.8571 47.577 59.8571 32.4286Z" stroke="#EFF5FC" stroke-width="9.14286"/>
</g>
</g>
<defs>
<clipPath id="clip0_10333_21920">
<rect width="64" height="64" rx="32" fill="white"/>
</clipPath>
<clipPath id="clip1_10333_21920">
<rect width="64" height="64" fill="white"/>
</clipPath>
<clipPath id="clip2_10333_21920">
<rect width="24" height="24" fill="white" transform="translate(20 19)"/>
</clipPath>
</defs>
</svg>
