<svg width="64" height="64" viewBox="0 0 64 64" fill="none" xmlns="http://www.w3.org/2000/svg">
<g clip-path="url(#clip0_10333_21936)">
<path d="M59.4287 31.9999C59.4287 16.8515 47.1485 4.57129 32.0001 4.57129C16.8517 4.57129 4.57153 16.8515 4.57153 31.9999C4.57153 47.1482 16.8517 59.4284 32.0001 59.4284C47.1485 59.4284 59.4287 47.1482 59.4287 31.9999Z" fill="#D7E4F7"/>
<g clip-path="url(#clip1_10333_21936)">
<path d="M41.414 31.2969H38.0656C38.2479 30.9429 38.3516 30.5421 38.3516 30.1173V22.586C38.3516 21.16 37.1916 20 35.7656 20H28.2344C26.8084 20 25.6484 21.16 25.6484 22.586V30.1173C25.6484 30.5421 25.7521 30.9429 25.9344 31.2969H22.586C21.16 31.2969 20 32.4568 20 33.8829V41.4142C20 42.84 21.16 44 22.586 44H30.1171C30.8587 44 31.528 43.6858 32 43.1839C32.472 43.6858 33.1413 44 33.8829 44H41.414C42.84 44 44 42.84 44 41.4142V33.8829C44 32.4568 42.84 31.2969 41.414 31.2969ZM42.5938 33.8829V40.3344H32.7031V33.8829C32.7031 33.2323 33.2323 32.7031 33.8829 32.7031H35.0624V35.0125C35.0624 35.4008 35.3774 35.7156 35.7656 35.7156H39.5313C39.9195 35.7156 40.2344 35.4008 40.2344 35.0125V32.7031H41.414C42.0646 32.7031 42.5938 33.2323 42.5938 33.8829ZM38.8282 34.3093H36.4687V32.7031H38.8282V34.3093ZM33.1797 21.4062V23.0125H30.8203V21.4062H33.1797ZM28.2344 21.4062H29.414V23.7156C29.414 24.1039 29.7289 24.4187 30.1171 24.4187H33.8829C34.2711 24.4187 34.586 24.1039 34.586 23.7156V21.4062H35.7656C36.4161 21.4062 36.9453 21.9354 36.9453 22.586V29.0375H27.0547V22.586C27.0547 21.9354 27.5839 21.4062 28.2344 21.4062ZM27.101 30.4438H36.899C36.7569 30.9358 36.3028 31.2969 35.7656 31.2969H28.2344C27.6972 31.2969 27.2431 30.9358 27.101 30.4438ZM27.5313 32.7031V34.3093H25.1718V32.7031H27.5313ZM22.586 32.7031H23.7656V35.0125C23.7656 35.4008 24.0805 35.7156 24.4687 35.7156H28.2344C28.6226 35.7156 28.9376 35.4008 28.9376 35.0125V32.7031H30.1171C30.7677 32.7031 31.2969 33.2323 31.2969 33.8829V40.3344H21.4062V33.8829C21.4062 33.2323 21.9354 32.7031 22.586 32.7031ZM30.1171 42.5938H22.586C22.0488 42.5938 21.5947 42.2327 21.4526 41.7407H31.2505C31.1085 42.2327 30.6544 42.5938 30.1171 42.5938ZM41.414 42.5938H33.8829C33.3456 42.5938 32.8915 42.2327 32.7495 41.7407H42.5474C42.4053 42.2327 41.9512 42.5938 41.414 42.5938Z" fill="#3577D5"/>
</g>
<path d="M59.8571 32.4286C59.8571 17.2802 47.577 5 32.4286 5C17.2802 5 5 17.2802 5 32.4286C5 47.577 17.2802 59.8571 32.4286 59.8571C47.577 59.8571 59.8571 47.577 59.8571 32.4286Z" stroke="#EFF5FC" stroke-width="9.14286"/>
</g>
<defs>
<clipPath id="clip0_10333_21936">
<rect width="64" height="64" fill="white"/>
</clipPath>
<clipPath id="clip1_10333_21936">
<rect width="24" height="24" fill="white" transform="translate(20 20)"/>
</clipPath>
</defs>
</svg>
