<svg width="64" height="64" viewBox="0 0 64 64" fill="none" xmlns="http://www.w3.org/2000/svg">
<g clip-path="url(#clip0_10333_21925)">
<g clip-path="url(#clip1_10333_21925)">
<path d="M59.4287 31.9999C59.4287 16.8515 47.1485 4.57129 32.0001 4.57129C16.8517 4.57129 4.57153 16.8515 4.57153 31.9999C4.57153 47.1482 16.8517 59.4284 32.0001 59.4284C47.1485 59.4284 59.4287 47.1482 59.4287 31.9999Z" fill="#D7E4F7"/>
<g clip-path="url(#clip2_10333_21925)">
<path d="M40.4375 20H23.5625C22.7871 20 22.1562 20.6308 22.1562 21.4062V42.5938C22.1562 43.3692 22.7871 44 23.5625 44H40.4375C41.2128 44 41.8437 43.3692 41.8437 42.5938V21.4062C41.8437 20.6308 41.2128 20 40.4375 20ZM29.1875 24.6875H34.8125C35.5879 24.6875 36.2187 24.0566 36.2187 23.2812V22.8125H39.0312V41.1875H24.9687V22.8125H27.7813V23.2812C27.7813 24.0566 28.4121 24.6875 29.1875 24.6875ZM35.2812 23.2812C35.2812 23.5353 35.0666 23.75 34.8125 23.75H29.1875C28.9291 23.75 28.7188 23.5397 28.7188 23.2812V22.8125H35.2812V23.2812ZM28.7188 21.875V20.9375H35.2812V21.875H28.7188ZM40.9062 42.5938C40.9062 42.8522 40.6959 43.0625 40.4375 43.0625H23.5625C23.304 43.0625 23.0937 42.8522 23.0937 42.5938V21.4062C23.0937 21.1478 23.304 20.9375 23.5625 20.9375H27.7813V21.875H24.5C24.2411 21.875 24.0312 22.0849 24.0312 22.3437V41.6562C24.0312 41.9151 24.2411 42.125 24.5 42.125H39.4999C39.7588 42.125 39.9687 41.9151 39.9687 41.6562V22.3437C39.9687 22.0849 39.7588 21.875 39.4999 21.875H36.2187V20.9375H40.4375C40.6959 20.9375 40.9062 21.1478 40.9062 21.4062V42.5938Z" fill="#3577D5"/>
<path d="M26.981 31.8853C27.1641 32.0683 27.4609 32.0683 27.644 31.8853L29.9666 29.5626L32.0614 31.6574C32.2445 31.8404 32.5413 31.8404 32.7244 31.6574L36.2188 28.163V28.9632C36.2436 29.5851 37.1318 29.5847 37.1563 28.9632V27.0312C37.1563 26.7724 36.9464 26.5625 36.6876 26.5625H34.7556C34.1337 26.5873 34.1342 27.4754 34.7556 27.5H35.5559L32.3929 30.663L30.2981 28.5682C30.1151 28.3851 29.8183 28.3851 29.6352 28.5682L26.981 31.2223C26.798 31.4054 26.798 31.7022 26.981 31.8853Z" fill="#3577D5"/>
<path d="M36.6875 38.375H27.3125C26.6905 38.3997 26.691 39.288 27.3125 39.3125H36.6875C37.3094 39.2878 37.3089 38.3996 36.6875 38.375Z" fill="#3577D5"/>
<path d="M36.6875 36.5H27.3125C26.6905 36.5247 26.691 37.413 27.3125 37.4375H36.6875C37.3094 37.4128 37.3089 36.5246 36.6875 36.5Z" fill="#3577D5"/>
<path d="M36.6875 34.625H27.3125C26.6905 34.6497 26.691 35.538 27.3125 35.5625H36.6875C37.3094 35.5378 37.3089 34.6496 36.6875 34.625Z" fill="#3577D5"/>
</g>
<path d="M59.8571 32.4286C59.8571 17.2802 47.577 5 32.4286 5C17.2802 5 5 17.2802 5 32.4286C5 47.577 17.2802 59.8571 32.4286 59.8571C47.577 59.8571 59.8571 47.577 59.8571 32.4286Z" stroke="#EFF5FC" stroke-width="9.14286"/>
</g>
</g>
<defs>
<clipPath id="clip0_10333_21925">
<rect width="64" height="64" rx="32" fill="white"/>
</clipPath>
<clipPath id="clip1_10333_21925">
<rect width="64" height="64" fill="white"/>
</clipPath>
<clipPath id="clip2_10333_21925">
<rect width="24" height="24" fill="white" transform="translate(20 20)"/>
</clipPath>
</defs>
</svg>
