<svg width="64" height="64" viewBox="0 0 64 64" fill="none" xmlns="http://www.w3.org/2000/svg">
<g clip-path="url(#clip0_10333_21930)">
<g clip-path="url(#clip1_10333_21930)">
<path d="M59.4284 31.9999C59.4284 16.8515 47.1482 4.57129 31.9999 4.57129C16.8515 4.57129 4.57129 16.8515 4.57129 31.9999C4.57129 47.1482 16.8515 59.4284 31.9999 59.4284C47.1482 59.4284 59.4284 47.1482 59.4284 31.9999Z" fill="#D7E4F7"/>
<g clip-path="url(#clip2_10333_21930)">
<path d="M44 44H37.4375V42.125H42.125V37.4375H44V44ZM26.5625 44H20V37.4375H21.875V42.125H26.5625V44ZM32 41.1875C26.934 41.1875 22.8125 37.066 22.8125 32C22.8125 26.934 26.934 22.8125 32 22.8125C37.066 22.8125 41.1875 26.934 41.1875 32C41.1875 37.066 37.066 41.1875 32 41.1875ZM32 24.6875C27.9679 24.6875 24.6875 27.9679 24.6875 32C24.6875 36.0321 27.9679 39.3125 32 39.3125C36.0321 39.3125 39.3125 36.0321 39.3125 32C39.3125 27.9679 36.0321 24.6875 32 24.6875ZM36.5 32.9375H31.0625V27.5H32.9375V31.0625H36.5V32.9375ZM44 26.5625H42.125V21.875H37.4375V20H44V26.5625ZM21.875 26.5625H20V20H26.5625V21.875H21.875V26.5625Z" fill="#3577D5"/>
</g>
<path d="M59.8571 32.4286C59.8571 17.2802 47.577 5 32.4286 5C17.2802 5 5 17.2802 5 32.4286C5 47.577 17.2802 59.8571 32.4286 59.8571C47.577 59.8571 59.8571 47.577 59.8571 32.4286Z" stroke="#EFF5FC" stroke-width="9.14286"/>
</g>
</g>
<defs>
<clipPath id="clip0_10333_21930">
<rect width="64" height="64" rx="32" fill="white"/>
</clipPath>
<clipPath id="clip1_10333_21930">
<rect width="64" height="64" fill="white"/>
</clipPath>
<clipPath id="clip2_10333_21930">
<rect width="24" height="24" fill="white" transform="translate(20 20)"/>
</clipPath>
</defs>
</svg>
