<svg width="64" height="64" viewBox="0 0 64 64" fill="none" xmlns="http://www.w3.org/2000/svg">
<g clip-path="url(#clip0_10346_25040)">
<g clip-path="url(#clip1_10346_25040)">
<path d="M59.4287 31.9999C59.4287 16.8515 47.1485 4.57129 32.0001 4.57129C16.8517 4.57129 4.57153 16.8515 4.57153 31.9999C4.57153 47.1482 16.8517 59.4284 32.0001 59.4284C47.1485 59.4284 59.4287 47.1482 59.4287 31.9999Z" fill="#D7E4F7"/>
<g clip-path="url(#clip2_10346_25040)">
<path d="M35.9844 32.2344C36.5022 32.2344 36.9219 32.6541 36.9219 33.1719V36.0054C36.9219 36.2821 36.7996 36.5447 36.5877 36.723L35.0857 37.9863C34.9099 38.134 34.6957 38.2062 34.4827 38.2062C34.2156 38.2062 33.9503 38.0927 33.7648 37.8722C33.4315 37.4758 33.4826 36.8845 33.8788 36.5513L35.0469 35.5689V33.1719C35.0469 32.6541 35.4666 32.2344 35.9844 32.2344ZM43.0625 28.5312C42.5447 28.5312 42.125 28.9509 42.125 29.4688V30.9113C40.6224 29.0934 38.3755 28.0109 35.9633 28.0109C31.5551 28.0109 27.9688 31.5972 27.9688 36.0054C27.9688 40.4137 31.5646 44 35.9844 44C37.1921 44 38.386 43.7279 39.467 43.2099C39.4854 43.2017 39.5037 43.1936 39.5216 43.1844C39.5266 43.1817 39.5315 43.1782 39.5364 43.1755C39.6626 43.1134 39.7878 43.049 39.9107 42.9801C40.3626 42.7274 40.5241 42.1561 40.2712 41.7042C40.0186 41.2523 39.4474 41.0908 38.9955 41.3435C38.0813 41.8547 37.0402 42.125 35.9844 42.125C32.5984 42.125 29.8438 39.3797 29.8438 36.0054C29.8438 32.6312 32.5889 29.8859 35.9633 29.8859C37.8859 29.8859 39.6714 30.7844 40.8195 32.2812H39.3594C38.8416 32.2812 38.4219 32.7009 38.4219 33.2188C38.4219 33.7366 38.8416 34.1562 39.3594 34.1562H41.1875C42.7384 34.1562 44 32.8947 44 31.3438V29.4688C44 28.9509 43.5803 28.5312 43.0625 28.5312ZM42.3927 39.1682C41.9637 38.8784 41.381 38.9913 41.0914 39.4207C40.8017 39.8501 40.915 40.4327 41.3441 40.7224C41.5048 40.8308 41.6872 40.8828 41.8677 40.8828C42.1691 40.8828 42.4643 40.738 42.6458 40.4694C42.9349 40.0405 42.8221 39.4579 42.3927 39.1682ZM43.9676 36.2698C43.9615 36.2398 43.954 36.2103 43.9453 36.1808C43.9363 36.1517 43.926 36.1226 43.9143 36.0946C43.9026 36.0664 43.8894 36.0382 43.8749 36.0115C43.8603 35.9844 43.8449 35.9582 43.8281 35.9327C43.8112 35.9071 43.7924 35.8822 43.7731 35.8588C43.7539 35.8348 43.7328 35.8119 43.7112 35.7903C43.6898 35.7687 43.6667 35.7476 43.6429 35.7284C43.6195 35.7088 43.5941 35.6905 43.5688 35.6736C43.5435 35.6568 43.5168 35.6409 43.4901 35.6268C43.4628 35.6121 43.4351 35.5991 43.4071 35.5874C43.3789 35.5757 43.3498 35.5652 43.3209 35.5565C43.2912 35.5475 43.2612 35.54 43.2317 35.5339C43.2017 35.5279 43.1707 35.5231 43.1403 35.5204C43.0793 35.5142 43.0175 35.5142 42.9561 35.5204C42.9257 35.5231 42.8951 35.5279 42.8651 35.5339C42.8351 35.54 42.8052 35.5475 42.7761 35.5565C42.747 35.5652 42.7181 35.5757 42.6899 35.5874C42.6617 35.5991 42.6337 35.6121 42.6069 35.6268C42.5797 35.6409 42.5535 35.6568 42.5282 35.6736C42.5024 35.6905 42.4775 35.7088 42.454 35.7284C42.4302 35.7476 42.4072 35.7687 42.3856 35.7903C42.3636 35.8119 42.3429 35.8348 42.3233 35.8588C42.3041 35.8822 42.2858 35.9071 42.2689 35.9327C42.2521 35.9582 42.2361 35.9844 42.222 36.0115C42.2076 36.0382 42.1944 36.0664 42.1827 36.0946C42.171 36.1226 42.1607 36.1517 42.1517 36.1808C42.1429 36.2103 42.1353 36.2398 42.1292 36.2698C42.1232 36.2999 42.1184 36.3308 42.1157 36.3608C42.1124 36.3918 42.1109 36.4227 42.1109 36.4531C42.1109 36.4835 42.1124 36.5145 42.1157 36.5454C42.1184 36.5754 42.1232 36.6064 42.1292 36.6364C42.1354 36.6659 42.1429 36.6959 42.1517 36.7254C42.1607 36.7545 42.171 36.7836 42.1827 36.8116C42.1944 36.8398 42.2076 36.868 42.222 36.8948C42.2361 36.9213 42.2521 36.9481 42.2689 36.9735C42.2858 36.9991 42.3041 37.024 42.3233 37.0475C42.3429 37.0715 42.3636 37.0944 42.3856 37.116C42.4072 37.1376 42.4302 37.1586 42.454 37.1779C42.4775 37.1971 42.5024 37.2158 42.5282 37.2326C42.5535 37.2495 42.5797 37.2654 42.6069 37.2795C42.6337 37.2941 42.6617 37.3071 42.6899 37.3188C42.7181 37.3306 42.747 37.341 42.7761 37.3498C42.8052 37.3588 42.8353 37.3663 42.8651 37.3723C42.8951 37.3784 42.9257 37.3831 42.9561 37.3859C42.9865 37.3892 43.018 37.3906 43.0484 37.3906C43.079 37.3906 43.1099 37.3892 43.1403 37.3859C43.1707 37.3831 43.2018 37.3784 43.2317 37.3723C43.2614 37.3663 43.2914 37.3588 43.3209 37.3498C43.3498 37.341 43.3789 37.3306 43.4071 37.3188C43.4351 37.3071 43.4628 37.2941 43.4901 37.2795C43.5168 37.2654 43.5435 37.2495 43.5688 37.2326C43.5941 37.2158 43.6195 37.1971 43.6429 37.1779C43.6667 37.1586 43.6898 37.1376 43.7112 37.116C43.7328 37.0944 43.7539 37.0715 43.7731 37.0475C43.7924 37.024 43.8112 36.9991 43.8281 36.9735C43.8449 36.9481 43.8603 36.9213 43.8749 36.8948C43.8894 36.868 43.9026 36.8398 43.9143 36.8116C43.926 36.7836 43.9363 36.7545 43.9453 36.7254C43.954 36.6959 43.9615 36.6659 43.9676 36.6364C43.9738 36.6064 43.9784 36.5754 43.9813 36.5454C43.9846 36.5145 43.9859 36.4835 43.9859 36.4531C43.9859 36.4227 43.9846 36.3918 43.9813 36.3608C43.9784 36.3308 43.9736 36.2999 43.9676 36.2698ZM27.6875 42.125H23.75C22.7162 42.125 21.875 41.2838 21.875 40.25V25.625C21.875 24.5912 22.7162 23.75 23.75 23.75H24.9219V24.6875C24.9219 25.2053 25.3416 25.625 25.8594 25.625C26.3772 25.625 26.7969 25.2053 26.7969 24.6875V23.75H31.0156V24.6875C31.0156 25.2053 31.4353 25.625 31.9531 25.625C32.4709 25.625 32.8906 25.2053 32.8906 24.6875V23.75H37.1562V24.6875C37.1562 25.2053 37.5759 25.625 38.0938 25.625C38.6116 25.625 39.0312 25.2053 39.0312 24.6875V23.75H40.25C41.2838 23.75 42.125 24.5912 42.125 25.625C42.125 26.1428 42.5447 26.5625 43.0625 26.5625C43.5803 26.5625 44 26.1428 44 25.625C44 23.5572 42.3178 21.875 40.25 21.875H39.0312V20.9375C39.0312 20.4197 38.6116 20 38.0938 20C37.5759 20 37.1562 20.4197 37.1562 20.9375V21.875H32.8906V20.9375C32.8906 20.4197 32.4709 20 31.9531 20C31.4353 20 31.0156 20.4197 31.0156 20.9375V21.875H26.7969V20.9375C26.7969 20.4197 26.3772 20 25.8594 20C25.3416 20 24.9219 20.4197 24.9219 20.9375V21.875H23.75C21.6822 21.875 20 23.5572 20 25.625V40.25C20 42.3178 21.6822 44 23.75 44H27.6875C28.2053 44 28.625 43.5803 28.625 43.0625C28.625 42.5447 28.2053 42.125 27.6875 42.125Z" fill="#3577D5"/>
</g>
<path d="M59.8571 32.4286C59.8571 17.2802 47.577 5 32.4286 5C17.2802 5 5 17.2802 5 32.4286C5 47.577 17.2802 59.8571 32.4286 59.8571C47.577 59.8571 59.8571 47.577 59.8571 32.4286Z" stroke="#EFF5FC" stroke-width="9.14286"/>
</g>
</g>
<defs>
<clipPath id="clip0_10346_25040">
<rect width="64" height="64" rx="32" fill="white"/>
</clipPath>
<clipPath id="clip1_10346_25040">
<rect width="64" height="64" fill="white"/>
</clipPath>
<clipPath id="clip2_10346_25040">
<rect width="24" height="24" fill="white" transform="translate(20 20)"/>
</clipPath>
</defs>
</svg>
