<svg width="64" height="64" viewBox="0 0 64 64" fill="none" xmlns="http://www.w3.org/2000/svg">
<g clip-path="url(#clip0_10346_25072)">
<path d="M59.4287 31.9999C59.4287 16.8515 47.1485 4.57129 32.0001 4.57129C16.8517 4.57129 4.57153 16.8515 4.57153 31.9999C4.57153 47.1482 16.8517 59.4284 32.0001 59.4284C47.1485 59.4284 59.4287 47.1482 59.4287 31.9999Z" fill="#D7E4F7"/>
<g clip-path="url(#clip1_10346_25072)">
<path d="M44 25.625V32.2812C44 32.7991 43.5803 33.2187 43.0625 33.2187C42.5446 33.2187 42.125 32.7991 42.125 32.2812V25.625C42.125 24.5912 41.2838 23.75 40.25 23.75H39.0312V24.6875C39.0312 25.2053 38.6115 25.625 38.0937 25.625C37.5759 25.625 37.1562 25.2053 37.1562 24.6875V23.75H32.8906V24.6875C32.8906 25.2053 32.4709 25.625 31.9531 25.625C31.4353 25.625 31.0156 25.2053 31.0156 24.6875V23.75H26.7969V24.6875C26.7969 25.2053 26.3772 25.625 25.8594 25.625C25.3415 25.625 24.9219 25.2053 24.9219 24.6875V23.75H23.75C22.7162 23.75 21.875 24.5912 21.875 25.625V40.25C21.875 41.2838 22.7162 42.125 23.75 42.125H31.625C32.1428 42.125 32.5625 42.5446 32.5625 43.0625C32.5625 43.5803 32.1428 44 31.625 44H23.75C21.6822 44 20 42.3178 20 40.25V25.625C20 23.5572 21.6822 21.875 23.75 21.875H24.9219V20.9375C24.9219 20.4197 25.3415 20 25.8594 20C26.3772 20 26.7969 20.4197 26.7969 20.9375V21.875H31.0156V20.9375C31.0156 20.4197 31.4353 20 31.9531 20C32.4709 20 32.8906 20.4197 32.8906 20.9375V21.875H37.1562V20.9375C37.1562 20.4197 37.5759 20 38.0937 20C38.6115 20 39.0312 20.4197 39.0312 20.9375V21.875H40.25C42.3176 21.875 44 23.5572 44 25.625ZM26.7969 29.8437C26.7969 29.3259 26.3772 28.9062 25.8594 28.9062C25.3415 28.9062 24.9219 29.3259 24.9219 29.8437C24.9219 30.3616 25.3415 30.7812 25.8594 30.7812C26.3772 30.7812 26.7969 30.3616 26.7969 29.8437ZM34.0156 30.7812C34.5334 30.7812 34.9531 30.3616 34.9531 29.8437C34.9531 29.3259 34.5334 28.9062 34.0156 28.9062C33.4978 28.9062 33.0781 29.3259 33.0781 29.8437C33.0781 30.3616 33.4978 30.7812 34.0156 30.7812ZM38.0937 30.7812C38.6115 30.7812 39.0312 30.3616 39.0312 29.8437C39.0312 29.3259 38.6115 28.9062 38.0937 28.9062C37.5759 28.9062 37.1562 29.3259 37.1562 29.8437C37.1562 30.3616 37.5759 30.7812 38.0937 30.7812ZM26.7969 33.9219C26.7969 33.404 26.3772 32.9844 25.8594 32.9844C25.3415 32.9844 24.9219 33.404 24.9219 33.9219C24.9219 34.4397 25.3415 34.8594 25.8594 34.8594C26.3772 34.8594 26.7969 34.4395 26.7969 33.9219ZM25.8594 37.0625C25.3415 37.0625 24.9219 37.4821 24.9219 38C24.9219 38.5178 25.3415 38.9375 25.8594 38.9375C26.3772 38.9375 26.7969 38.5178 26.7969 38C26.7969 37.4821 26.3772 37.0625 25.8594 37.0625ZM30.875 29.8437C30.875 29.3259 30.4553 28.9062 29.9375 28.9062C29.4197 28.9062 29 29.3259 29 29.8437C29 30.3616 29.4197 30.7812 29.9375 30.7812C30.4553 30.7812 30.875 30.3616 30.875 29.8437ZM30.875 33.9219C30.875 33.404 30.4553 32.9844 29.9375 32.9844C29.4197 32.9844 29 33.404 29 33.9219C29 34.4397 29.4197 34.8594 29.9375 34.8594C30.4553 34.8594 30.875 34.4395 30.875 33.9219ZM29.9375 37.0625C29.4197 37.0625 29 37.4821 29 38C29 38.5178 29.4197 38.9375 29.9375 38.9375C30.4553 38.9375 30.875 38.5178 30.875 38C30.875 37.4821 30.4553 37.0625 29.9375 37.0625ZM33.0781 33.9219C33.0781 34.4397 33.4978 34.8594 34.0156 34.8594C34.5334 34.8594 34.9531 34.4397 34.9531 33.9219C34.9531 33.404 34.5334 32.9844 34.0156 32.9844C33.4978 32.9844 33.0781 33.404 33.0781 33.9219ZM37.1562 33.9219C37.1562 34.4397 37.5759 34.8594 38.0937 34.8594C38.6115 34.8594 39.0312 34.4397 39.0312 33.9219C39.0312 33.404 38.6115 32.9844 38.0937 32.9844C37.5759 32.9844 37.1562 33.404 37.1562 33.9219ZM43.6081 35.269C43.1872 34.9676 42.6016 35.0644 42.3002 35.4856L37.6792 41.9402C37.553 42.0865 37.3948 42.118 37.3102 42.1237C37.2231 42.1295 37.0559 42.1186 36.9087 41.9805L33.9222 39.066C33.5516 38.7044 32.958 38.7115 32.5964 39.0821C32.2349 39.4527 32.242 40.0464 32.6127 40.408L35.6042 43.3274C35.607 43.33 35.6099 43.3327 35.6126 43.3355C36.0613 43.7623 36.6598 43.9998 37.2758 43.9998C37.3287 43.9998 37.3818 43.9981 37.4349 43.9945C38.1058 43.9498 38.7322 43.6235 39.1535 43.0993C39.1643 43.0857 39.175 43.072 39.185 43.0579L43.8247 36.5769C44.1261 36.1559 44.0291 35.5703 43.6081 35.269Z" fill="#3577D5"/>
</g>
<path d="M59.8571 32.4286C59.8571 17.2802 47.577 5 32.4286 5C17.2802 5 5 17.2802 5 32.4286C5 47.577 17.2802 59.8571 32.4286 59.8571C47.577 59.8571 59.8571 47.577 59.8571 32.4286Z" stroke="#EFF5FC" stroke-width="9.14286"/>
</g>
<defs>
<clipPath id="clip0_10346_25072">
<rect width="64" height="64" fill="white"/>
</clipPath>
<clipPath id="clip1_10346_25072">
<rect width="24" height="24" fill="white" transform="translate(20 20)"/>
</clipPath>
</defs>
</svg>
