<svg width="64" height="64" viewBox="0 0 64 64" fill="none" xmlns="http://www.w3.org/2000/svg">
<g clip-path="url(#clip0_10346_25052)">
<g clip-path="url(#clip1_10346_25052)">
<path d="M59.4287 31.9999C59.4287 16.8515 47.1485 4.57129 32.0001 4.57129C16.8517 4.57129 4.57153 16.8515 4.57153 31.9999C4.57153 47.1482 16.8517 59.4284 32.0001 59.4284C47.1485 59.4284 59.4287 47.1482 59.4287 31.9999Z" fill="#D7E4F7"/>
<g clip-path="url(#clip2_10346_25052)">
<path d="M38.6094 34.0625H38.1406V32.9254C39.3435 32.1778 40.1658 30.8734 40.2439 29.375H40.4844C41.6475 29.375 42.5938 28.4287 42.5938 27.2656C42.5938 26.349 42.0059 25.5674 41.1875 25.2772V23.5156C41.1875 21.5771 39.6104 20 37.6719 20H33.9219C31.9834 20 30.4062 21.5771 30.4062 23.5156V25.2772C29.5879 25.5674 29 26.349 29 27.2656C29 28.4287 29.9463 29.375 31.1094 29.375H31.3499C31.428 30.8734 32.2503 32.1778 33.4531 32.9254V34.0625H32.9844C30.012 34.0625 27.5938 36.4807 27.5938 39.4531V40.1562H26.3281C25.165 40.1562 24.2188 39.21 24.2188 38.0469V32.6562H24.4531C24.8414 32.6562 25.1562 32.3414 25.1562 31.9531C25.1562 31.5648 24.8414 31.25 24.4531 31.25H24.2188V29.8438H24.9219C26.085 29.8438 27.0312 28.8975 27.0312 27.7344V22.1094C27.0312 20.9463 26.085 20 24.9219 20H22.1094C20.9463 20 20 20.9463 20 22.1094V27.7344C20 28.8975 20.9463 29.8438 22.1094 29.8438H22.8125V31.25H22.5781C22.1898 31.25 21.875 31.5648 21.875 31.9531C21.875 32.3414 22.1898 32.6562 22.5781 32.6562H22.8125V38.0469C22.8125 39.9854 24.3896 41.5625 26.3281 41.5625H27.5938V43.2969C27.5938 43.6852 27.9086 44 28.2969 44H43.2969C43.6852 44 44 43.6852 44 43.2969V39.4531C44 36.4807 41.5818 34.0625 38.6094 34.0625ZM40.25 26.5625H40.4844C40.8721 26.5625 41.1875 26.8779 41.1875 27.2656C41.1875 27.6533 40.8721 27.9688 40.4844 27.9688H40.25V26.5625ZM31.3438 27.9688H31.1094C30.7217 27.9688 30.4062 27.6533 30.4062 27.2656C30.4062 26.8779 30.7217 26.5625 31.1094 26.5625H31.3438V27.9688ZM21.4062 22.1094C21.4062 21.7217 21.7217 21.4062 22.1094 21.4062H24.9219C25.3096 21.4062 25.625 21.7217 25.625 22.1094V22.8125H21.4062V22.1094ZM22.1094 28.4375C21.7217 28.4375 21.4062 28.1221 21.4062 27.7344V24.2188H25.625V27.7344C25.625 28.1221 25.3096 28.4375 24.9219 28.4375H22.1094ZM31.8125 25.1562V23.5156C31.8125 22.3506 32.7569 21.4062 33.9219 21.4062H37.6719C38.8369 21.4062 39.7812 22.3506 39.7812 23.5156V25.1562H39.7598L37.1244 23.3993C36.7725 23.1647 36.2946 23.2917 36.1055 23.6699C35.65 24.5809 34.719 25.1562 33.7006 25.1562H31.8125ZM32.75 29.1406V26.5625H33.7006C34.9937 26.5625 36.1787 25.9673 36.9442 24.9693L38.8438 26.2357V29.1406C38.8438 30.8207 37.4769 32.1875 35.7969 32.1875C34.1168 32.1875 32.75 30.8207 32.75 29.1406ZM36.7344 33.4941V34.7656C36.7344 35.2826 36.3138 35.7031 35.7969 35.7031C35.2799 35.7031 34.8594 35.2826 34.8594 34.7656V33.4941C35.1618 33.5592 35.4753 33.5938 35.7969 33.5938C36.1184 33.5938 36.432 33.5592 36.7344 33.4941ZM42.5938 42.5938H29V39.4531C29 37.2561 30.7874 35.4688 32.9844 35.4688H33.561C33.8604 36.4186 34.7494 37.1094 35.7969 37.1094C36.8443 37.1094 37.7334 36.4186 38.0327 35.4688H38.6094C40.8064 35.4688 42.5938 37.2561 42.5938 39.4531V42.5938Z" fill="#3577D5"/>
</g>
<path d="M59.8571 32.4286C59.8571 17.2802 47.577 5 32.4286 5C17.2802 5 5 17.2802 5 32.4286C5 47.577 17.2802 59.8571 32.4286 59.8571C47.577 59.8571 59.8571 47.577 59.8571 32.4286Z" stroke="#EFF5FC" stroke-width="9.14286"/>
</g>
</g>
<defs>
<clipPath id="clip0_10346_25052">
<rect width="64" height="64" rx="32" fill="white"/>
</clipPath>
<clipPath id="clip1_10346_25052">
<rect width="64" height="64" fill="white"/>
</clipPath>
<clipPath id="clip2_10346_25052">
<rect width="24" height="24" fill="white" transform="translate(20 20)"/>
</clipPath>
</defs>
</svg>
