<svg width="64" height="64" viewBox="0 0 64 64" fill="none" xmlns="http://www.w3.org/2000/svg">
<g clip-path="url(#clip0_10346_25062)">
<g clip-path="url(#clip1_10346_25062)">
<path d="M59.4287 31.9999C59.4287 16.8515 47.1485 4.57129 32.0001 4.57129C16.8517 4.57129 4.57153 16.8515 4.57153 31.9999C4.57153 47.1482 16.8517 59.4284 32.0001 59.4284C47.1485 59.4284 59.4287 47.1482 59.4287 31.9999Z" fill="#D7E4F7"/>
<g clip-path="url(#clip2_10346_25062)">
<path d="M41.9862 22.7263C39.2139 19.9382 34.6384 20.0768 31.9989 22.9749C29.3591 20.0769 24.7839 19.9382 22.0115 22.7263C19.2546 25.4718 19.3485 29.9928 22.1891 32.6427C20.7358 34.0306 21.5684 36.5247 23.5464 36.7678C23.4279 38.1222 24.5807 39.3643 25.9443 39.3413C26.0279 40.8323 27.5244 41.8996 28.9592 41.5056C29.4299 43.2819 31.6927 43.8889 32.9909 42.5815C33.7281 41.8487 34.3145 41.3865 34.3519 40.2765C35.5701 40.2426 36.6242 39.1742 36.6428 37.9567C37.8727 37.9377 38.9443 36.8657 38.9632 35.6361C40.2392 35.6167 41.3455 34.4651 41.2861 33.1651L41.9861 32.4651C44.6712 29.7801 44.6712 25.4112 41.9862 22.7263ZM23.2445 33.7634L23.902 33.1059C24.0719 32.936 24.295 32.851 24.5183 32.851C25.2837 32.846 25.6832 33.7923 25.1344 34.3384L24.477 34.9959C23.6259 35.7793 22.4609 34.6148 23.2445 33.7634ZM25.0778 36.9323C25.0778 36.6994 25.1685 36.4806 25.333 36.316L25.9909 35.6582C26.1554 35.4938 26.3741 35.4033 26.6068 35.4033C27.3787 35.4019 27.7699 36.346 27.223 36.891L26.6429 37.4711C26.4655 37.6721 26.222 37.8081 25.9492 37.8037C25.4809 37.8134 25.0681 37.4007 25.0778 36.9323ZM27.7309 39.7916C27.3929 39.4672 27.3929 38.8836 27.7309 38.5592L28.3111 37.979C28.6493 37.5775 29.243 37.5253 29.6209 37.9017C29.9607 38.2415 29.9607 38.7943 29.6209 39.1342L28.9634 39.7917C28.6236 40.1316 28.0708 40.1315 27.7309 39.7916ZM32.5603 40.836L31.9028 41.4935C31.7382 41.6581 31.5194 41.7488 31.2866 41.7488C31.0538 41.7488 30.8349 41.6581 30.6703 41.4935C30.3323 41.169 30.3321 40.5854 30.6704 40.261L31.3278 39.6035C31.6676 39.2637 32.2205 39.2637 32.5603 39.6035C32.8984 39.9279 32.8984 40.5116 32.5603 40.836ZM39.493 33.8453C39.1686 34.1834 38.5849 34.1834 38.2605 33.8453L34.8364 30.4212L33.7483 31.5092L37.1725 34.9334C37.5122 35.2732 37.5122 35.826 37.1725 36.1658C36.8326 36.5058 36.2798 36.5057 35.94 36.1658L32.5739 32.7998L32.5158 32.7417L31.4278 33.8298L31.4858 33.8878L34.8519 37.2539C35.1917 37.5937 35.1917 38.1466 34.8519 38.4864C34.5121 38.8262 33.9592 38.8262 33.6194 38.4864L33.6187 38.4871C32.9935 37.8827 32.1198 37.6836 31.3306 37.89C31.0793 36.8635 30.0474 36.0863 29.0096 36.1089C28.9593 35.004 28.0252 34.0058 26.9212 33.8865C27.0669 31.9908 24.9848 30.6852 23.3417 31.6191C21.0533 29.575 20.9124 25.9866 23.0997 23.8143C25.2744 21.6244 28.8676 21.7695 30.9109 24.0629L29.0086 25.9652L30.5329 27.4895C31.7038 28.6604 33.508 28.8215 34.8533 27.9729L39.4931 32.6128C39.8328 32.9526 39.8328 33.5055 39.493 33.8453ZM40.8982 31.377L40.6637 31.6115C40.637 31.582 40.6094 31.5531 40.5811 31.5248L34.9138 25.8574L34.3697 26.4014C33.6119 27.1592 32.3788 27.1593 31.6209 26.4014L31.1847 25.9652L33.3355 23.8143C38.5603 19.0055 45.706 26.1557 40.8982 31.377Z" fill="#3577D5"/>
</g>
<path d="M59.8571 32.4286C59.8571 17.2802 47.577 5 32.4286 5C17.2802 5 5 17.2802 5 32.4286C5 47.577 17.2802 59.8571 32.4286 59.8571C47.577 59.8571 59.8571 47.577 59.8571 32.4286Z" stroke="#EFF5FC" stroke-width="9.14286"/>
</g>
</g>
<defs>
<clipPath id="clip0_10346_25062">
<rect width="64" height="64" rx="32" fill="white"/>
</clipPath>
<clipPath id="clip1_10346_25062">
<rect width="64" height="64" fill="white"/>
</clipPath>
<clipPath id="clip2_10346_25062">
<rect width="24" height="24" fill="white" transform="translate(20 20)"/>
</clipPath>
</defs>
</svg>
