<svg width="204" height="68" viewBox="0 0 204 68" fill="none" xmlns="http://www.w3.org/2000/svg">
<path d="M5.44475 30.3709C4.11257 30.2841 5.13723 37.5371 5.30311 38.4227C5.30649 38.433 5.30564 38.4442 5.30073 38.4539C5.29583 38.4636 5.28728 38.471 5.27695 38.4743C5.26663 38.4777 5.25539 38.4769 5.24569 38.472C5.236 38.4671 5.22866 38.4585 5.22527 38.4482C4.03345 35.9361 2.99688 33.3883 2.11557 30.8047C1.87439 30.0965 1.6396 29.1344 1.71489 28.3713C1.88843 26.6104 3.03048 25.0511 4.37671 23.9639C4.39206 23.9516 4.40376 23.9354 4.41051 23.9169C4.41726 23.8985 4.41881 23.8785 4.41499 23.8592C3.36183 18.5969 2.54559 13.3 1.96627 7.96873C1.81953 6.62251 1.13174 0.884167 2.02114 0.0368774C2.05176 0.00795382 2.08792 -0.00395571 2.1296 0.00114844C2.81228 0.0942993 3.41202 2.0275 3.60853 2.75612C4.88457 7.47235 5.61319 11.7241 6.59574 17.1345C7.0347 19.5522 7.36732 21.5964 7.5936 23.2672C7.59956 23.3105 7.6221 23.3407 7.66123 23.3578C9.77307 24.2829 11.8058 25.9302 12.0266 28.3624C12.0759 28.9136 12.024 29.9251 11.8709 31.3968C11.6531 33.4861 11.3524 35.5567 10.9687 37.6085C10.9665 37.6183 10.9609 37.6269 10.9529 37.6329C10.9449 37.6389 10.935 37.6418 10.9251 37.6412C10.9151 37.6406 10.9057 37.6365 10.8985 37.6295C10.8913 37.6226 10.8868 37.6134 10.8858 37.6034C10.8092 36.612 10.0806 29.8617 8.81222 29.8885C8.76373 29.8894 8.73183 29.9128 8.71651 29.9587C8.55828 30.441 8.46981 30.8205 8.4511 31.0969C8.29797 33.3572 8.23885 35.6124 8.27373 37.8625C8.27373 37.8702 8.27096 37.8776 8.26593 37.8834C8.2609 37.8892 8.25394 37.893 8.24634 37.8941C8.23874 37.8951 8.231 37.8935 8.22454 37.8893C8.21809 37.8851 8.21335 37.8788 8.2112 37.8714C7.66166 35.8748 7.03129 33.8991 6.32011 31.9442C6.13509 31.4364 5.92454 30.8124 5.54428 30.4181C5.51706 30.3892 5.48388 30.3734 5.44475 30.3709Z" fill="#FE724C"/>
<path d="M28.3548 22.6832C27.8099 22.5735 27.9413 20.7551 27.9783 20.3621C28.0638 19.4676 28.1493 18.4761 29.0234 18.0665C30.0353 17.5931 31.5755 17.6595 32.641 17.9172C34.3037 18.3192 35.068 20.861 33.9208 22.0912C32.8209 23.2715 29.7405 22.9627 28.3548 22.6832Z" fill="#FE724C"/>
<path d="M42.938 25.8318C42.3931 26.2529 41.653 25.6085 41.8265 25.0407C41.8759 24.8816 42.0316 24.6847 42.2936 24.4499C43.2417 23.6 44.0545 22.5843 44.2663 21.3083C44.3403 20.8604 44.6198 20.4916 45.106 20.5988C45.9303 20.7787 45.7453 21.6439 45.5717 22.2564C45.1864 23.6268 44.0481 24.9756 42.938 25.8318Z" fill="#FE724C"/>
<path d="M34.452 28.2982C32.6502 27.5338 33.0496 26.1991 33.865 24.8235C34.6689 23.4671 37.2567 22.9414 38.5493 23.7223C39.7412 24.442 40.4838 26.3012 39.5778 27.5121C38.4766 28.9847 36.0049 28.9566 34.452 28.2982ZM34.688 26.7452C35.4919 27.1765 36.3188 27.3288 37.1687 27.2021C37.6306 27.1332 38.5059 26.8039 38.4791 26.2501C38.446 25.5381 37.956 24.8542 37.1661 24.8682C36.4566 24.8822 35.3707 25.0571 35.0466 25.7806C34.9105 26.0851 34.782 26.3824 34.6612 26.6725C34.656 26.686 34.6559 26.7009 34.6608 26.7143C34.6658 26.7277 34.6755 26.7388 34.688 26.7452Z" fill="#FE724C"/>
<path d="M25.4369 30.1129C24.4454 29.4187 22.9333 28.3162 23.556 26.8653C24.0511 25.7156 26.1578 23.9917 27.4301 24.1244C27.7907 24.161 28.1595 24.3065 28.5364 24.5608C29.661 25.3188 30.1672 26.434 30.0549 27.9066C29.9579 29.1814 28.2735 30.0937 27.1902 30.4025C26.5547 30.5837 25.9703 30.4872 25.4369 30.1129ZM25.1051 27.9308C25.5658 28.2971 26.3352 29.2171 26.9886 28.9542C27.4007 28.7883 28.3858 28.2715 28.5249 27.7598C28.7673 26.8628 28.234 26.0449 27.4147 25.6404C27.3807 25.6233 27.3446 25.6174 27.3063 25.6225C27.0034 25.6633 26.761 25.745 26.5789 25.8675C26.2765 26.0729 25.0171 27.0836 24.9367 27.5225C24.9069 27.6816 24.9631 27.8177 25.1051 27.9308Z" fill="#FE724C"/>
<path d="M51.4061 31.7709C50.6482 31.5961 50.1352 31.087 49.6848 30.4847C48.8579 29.3796 49.2433 28.5208 49.7971 27.3354C50.0497 26.7956 50.2845 26.2406 50.6367 25.7965C51.5669 24.6187 53.2832 23.8722 54.6205 24.9071C55.4907 25.5821 55.8468 26.3707 55.9667 27.5038C56.0356 28.1487 56.0262 28.7084 55.9386 29.1831C55.8174 29.8428 54.942 30.2754 54.4291 30.5919C53.4963 31.1673 52.6235 32.0529 51.4061 31.7709Z" fill="#FE724C"/>
<path d="M18.275 29.5566C19.0815 28.9135 19.8318 28.3941 20.8539 28.7974C22.3481 29.3882 22.6952 31.3367 22.2626 32.7595C22.1716 33.0598 22.0717 33.3566 21.9628 33.6501C21.9466 33.6927 21.9594 33.7233 22.0011 33.742C25.7909 35.4749 24.1295 39.2775 20.2873 38.6216C19.6736 38.5169 19.5702 37.6492 19.9913 37.3353C20.6127 36.8734 21.9321 37.5472 22.5051 36.779C23.2286 35.8079 21.0785 34.9747 20.5464 34.7246C19.9033 34.4221 19.7463 33.9079 20.2567 33.3885C20.9636 32.6701 21.3516 31.1491 20.526 30.326C19.9364 29.7365 19.07 30.9526 18.7255 31.4107C18.3005 31.9734 17.6791 31.7909 17.3997 31.2193C17.1279 30.6616 16.9288 30.1551 16.3878 29.8003C16.3516 29.7765 16.3107 29.7609 16.2679 29.7544C16.2251 29.7479 16.1814 29.7508 16.1399 29.7628C16.0983 29.7748 16.0598 29.7956 16.027 29.8239C15.9943 29.8522 15.968 29.8873 15.9501 29.9266C15.5775 30.7522 15.8518 31.7501 16.1147 32.5719C16.1955 32.8237 16.2206 33.0202 16.19 33.1614C16.0802 33.6603 15.4052 33.8594 15.0364 33.5506C14.5681 33.1589 14.3831 31.9007 14.3219 31.2984C14.1917 30.0236 14.5439 28.5064 16.0024 28.2946C16.9109 28.1632 17.7263 28.8025 18.1819 29.5413C18.2065 29.5813 18.2376 29.5864 18.275 29.5566Z" fill="#FE724C"/>
<path d="M40.244 32.3295C40.4316 31.6927 40.7481 30.9794 41.21 30.5162C42.2589 29.4635 43.8157 29.5222 44.9131 30.4486C45.7629 31.1657 45.9849 31.9798 46.0768 33.0721C46.0811 33.124 46.1083 33.1436 46.1585 33.1308C47.1717 32.8756 48.6442 32.7965 49.494 33.4677C50.5698 34.3163 50.2482 35.6408 49.4328 36.5761C48.9619 37.1172 47.4422 38.4838 46.7837 38.2388C45.8841 37.9045 46.304 37.1185 46.8833 36.7599C47.543 36.3516 48.1504 35.9662 48.5409 35.3065C49.3881 33.876 46.1496 34.6263 45.6953 34.7769C45.1172 34.9683 44.5009 35.0092 44.3873 34.2844C44.3376 33.9666 44.529 33.6081 44.5558 33.312C44.6383 32.3686 44.3031 31.7136 43.5503 31.3469C42.2117 30.6936 41.6834 32.5643 41.5303 33.423C41.1768 35.4111 39.2436 32.8986 38.0416 33.8735C37.2364 34.5268 38.7473 35.8692 39.3125 36.2035C40.3921 36.8428 39.5958 38.0921 38.6286 37.5064C37.29 36.6948 35.5738 34.8854 36.6278 33.2444C37.3589 32.1074 38.8787 31.9122 40.0884 32.4048C40.1683 32.4371 40.2202 32.412 40.244 32.3295Z" fill="#FE724C"/>
<path d="M26.2328 35.4349C25.5858 34.2903 27.311 33.2274 27.9031 32.107C28.5819 30.8233 30.1591 31.0224 31.3548 31.3376C32.487 31.6362 33.3858 31.959 34.051 32.3061C34.8537 32.7246 33.7244 35.0751 33.4347 35.5268C32.2812 37.3298 30.2433 37.0619 28.4709 36.6C27.7181 36.4034 26.613 36.1074 26.2328 35.4349ZM27.7819 34.7803C28.7202 35.1453 29.667 35.3656 30.6223 35.4413C31.943 35.5447 32.4177 34.5468 32.7087 33.4494C32.7189 33.4103 32.7057 33.3831 32.6691 33.3677C31.8933 33.0424 30.1515 32.4235 29.3999 32.6481C29.3582 32.6608 29.3259 32.6855 29.3029 32.7221C28.858 33.4264 28.3429 34.0755 27.7576 34.6693C27.7498 34.6776 27.7442 34.6876 27.7411 34.6985C27.7381 34.7094 27.7377 34.7209 27.7401 34.7319C27.7425 34.7428 27.7476 34.753 27.7549 34.7615C27.7622 34.7699 27.7714 34.7764 27.7819 34.7803Z" fill="#FE724C"/>
<path d="M55.103 38.0215C54.7164 38.107 53.4735 38.0917 53.6356 37.3796C53.707 37.0649 53.8431 36.7752 54.0439 36.5106C55.3395 34.8016 56.9435 33.5039 58.8559 32.6174C59.2119 32.4528 59.6317 32.5115 59.841 32.8778C60.2863 33.66 59.3994 35.1568 58.8673 35.6991C57.9754 36.6089 56.3535 37.7471 55.103 38.0215Z" fill="#FE724C"/>
<path d="M17.2604 35.2495C16.1145 35.7842 15.5888 34.4979 16.6007 33.9314C17.6406 33.3508 18.6385 33.9339 19.3442 34.7646C19.5364 34.9901 19.63 35.2061 19.6249 35.4128C19.6147 35.8225 19.14 36.227 18.71 36.093C18.2174 35.9386 17.8167 34.9905 17.2604 35.2495Z" fill="#FE724C"/>
<path d="M41.7404 38.1226C41.1636 38.3995 40.5205 37.8176 40.7451 37.1911C41.2223 35.8614 42.7714 35.5628 44.0092 35.8129C44.859 35.9839 45.1091 36.9882 44.2236 37.2714C44.0092 37.3416 43.6493 37.2753 43.4158 37.237C42.8331 37.14 42.3912 37.3114 42.09 37.7512C41.9522 37.9528 41.8357 38.0766 41.7404 38.1226Z" fill="#FE724C"/>
<path d="M14.2666 57.9608C9.92806 54.8767 5.78221 51.097 2.43644 46.9805C1.58277 45.9304 0.624463 44.6084 0.188058 43.3209C-0.111811 42.4404 0.0349311 41.0942 0.0425873 40.155C0.0425873 40.1142 0.063432 40.0938 0.105116 40.0938H59.8862C59.9288 40.0938 59.95 40.115 59.95 40.1576C59.9483 40.8985 59.9505 41.6356 59.9564 42.3689C59.9692 44.1847 57.805 46.7011 56.7089 47.9541C53.5988 51.51 50.1433 54.6908 46.3424 57.4964C44.9898 58.4942 42.9086 60 41.177 60C33.736 60 26.295 60 18.8539 60C18.4082 60 18.0352 59.9561 17.7349 59.8685C16.5494 59.5253 15.2696 58.6729 14.2666 57.9608Z" fill="#FE724C"/>
<path d="M86.6607 38.6254L86.6135 38.7772C86.5965 38.8308 86.5625 38.8457 86.5114 38.8219L86.4476 38.7913C86.4008 38.7692 86.3549 38.7709 86.3098 38.7964C85.9202 39.0167 85.5735 39.0116 85.2698 38.7811C84.5744 38.2515 84.7007 37.0112 84.9649 36.3732C85.9049 34.0933 86.8568 31.7543 87.8206 29.3562C87.8836 29.2006 87.8368 29.1529 87.6803 29.2133C87.6071 29.2414 87.4986 29.258 87.3549 29.2631C86.5739 29.2937 85.9359 29.4838 85.0593 29.5821C82.876 29.8245 82.7522 27.1755 84.8283 27.1372C86.2711 27.11 87.6513 26.9777 88.9691 26.7404C89.0116 26.7327 89.0405 26.7093 89.0558 26.6702C89.2817 26.1138 89.6262 25.6608 89.8138 25.1096C90.132 24.1772 90.5063 23.2674 90.9367 22.3801C90.9554 22.3419 90.9639 22.3015 90.9622 22.2589C90.938 21.649 91.3476 20.8221 91.6079 20.2479C91.9282 19.541 92.1324 18.8264 92.4131 18.1067C92.7385 17.276 92.9184 16.4223 93.2719 15.5954C93.4186 15.2547 94.0694 14.8553 94.3208 14.8183C95.1613 14.695 95.7397 14.9749 96.0562 15.658C96.425 16.4517 95.4437 18.1947 95.191 18.9208C94.2825 21.5303 93.4135 23.3652 92.4131 25.865C92.3586 26.0011 92.3327 26.1283 92.3353 26.2465C92.3361 26.312 92.3693 26.3418 92.4348 26.3359L96.2986 25.9735C96.3627 25.9673 96.4238 25.9431 96.4746 25.9035C96.5255 25.864 96.564 25.8108 96.5857 25.7502C96.9698 24.6643 97.5657 23.4354 97.9243 22.5677C98.6134 20.8987 99.3267 19.2402 100.064 17.5924C100.447 16.7366 100.722 16.2045 100.89 15.9961C101.379 15.39 102.218 15.2024 102.877 15.6057C103.926 16.2475 102.919 17.826 102.648 18.6796C102.54 19.0199 102.442 19.273 102.353 19.4389C101.274 21.444 100.308 23.5018 99.4568 25.6123C99.4364 25.6617 99.4521 25.6927 99.504 25.7055C99.9213 25.8076 100.281 25.4018 100.608 25.6493C100.642 25.6757 100.678 25.6791 100.718 25.6596C101.255 25.3924 101.729 25.4707 102.138 25.8944C102.17 25.9267 102.177 25.9641 102.159 26.0066C102.078 26.2066 102.111 26.389 102.26 26.5541C102.272 26.5669 102.28 26.5829 102.282 26.6C102.285 26.617 102.282 26.6344 102.274 26.6498C102.079 27.0351 101.941 27.3605 101.552 27.5979C101.296 27.7535 101.148 27.8888 100.835 27.9411C100.046 28.0721 99.2675 28.187 98.5011 28.2856C98.4682 28.2896 98.437 28.3022 98.4108 28.3221C98.3845 28.3421 98.3641 28.3687 98.3518 28.3992C97.9409 29.392 97.6436 30.534 97.3041 31.4375C96.855 32.6327 96.4279 33.836 96.023 35.0474C95.7997 35.7147 95.4067 36.3885 95.1655 37.1031C95.151 37.1465 95.1208 37.1677 95.0749 37.1669C94.9558 37.1635 94.8758 37.2222 94.835 37.343C94.8231 37.377 94.7989 37.3974 94.7623 37.4042C94.4969 37.4561 94.2867 37.5969 94.1319 37.8266C94.1095 37.8602 94.0749 37.8839 94.0355 37.8927C93.996 37.9015 93.9547 37.8947 93.9201 37.8738C93.7304 37.759 93.5296 37.6688 93.3178 37.6033C93.2787 37.5914 93.2451 37.5705 93.217 37.5407C92.6951 36.9844 92.8852 35.6088 93.0996 35.0384C93.8627 33.0027 94.6287 30.9683 95.3977 28.9351C95.4292 28.8509 95.4484 28.6936 95.4552 28.463C95.456 28.4213 95.4356 28.4009 95.3939 28.4018C94.818 28.4128 94.4109 28.4379 94.1727 28.4771C93.8831 28.5243 93.6317 28.4681 93.3791 28.5243C92.7521 28.6646 92.1196 28.7697 91.4816 28.8394C90.952 28.8981 90.9546 29.1712 90.79 29.5655C90.2081 30.9606 89.6198 32.3528 89.0252 33.742C88.5773 34.7871 87.8308 36.8364 87.0512 38.3255C86.9606 38.4978 86.9376 38.5118 86.7462 38.5475C86.7028 38.5561 86.6743 38.582 86.6607 38.6254Z" fill="#202020"/>
<path d="M192.855 24.8307C192.8 25.0187 192.836 25.0344 192.962 24.8779C194.107 23.4691 195.943 21.0778 197.932 21.7937C198.294 21.9239 198.474 22.1982 198.698 22.4866C199.267 23.2241 199.012 24.2526 198.597 24.9927C197.462 27.0267 196.285 29.2407 195.762 31.5248C195.725 31.6864 195.728 31.8276 195.77 31.9484C195.782 31.9841 195.802 32.0166 195.829 32.0437C195.855 32.0708 195.887 32.0919 195.922 32.1056C195.957 32.1193 195.995 32.1252 196.033 32.123C196.071 32.1207 196.108 32.1104 196.141 32.0926C196.576 31.8612 196.96 31.5656 197.292 31.2058C198.791 29.5843 200.129 27.8396 201.306 25.9715C201.465 25.7205 201.675 25.5312 201.935 25.4036C201.992 25.3747 202.012 25.3913 201.995 25.4534L201.941 25.6435C201.936 25.6598 201.937 25.6772 201.943 25.6929C201.949 25.7086 201.961 25.7218 201.975 25.7304C201.99 25.739 202.007 25.7426 202.024 25.7405C202.04 25.7384 202.056 25.7307 202.068 25.7188L202.395 25.396C202.455 25.3373 202.486 25.35 202.487 25.4342C202.489 25.6163 202.597 25.6741 202.811 25.6078C202.852 25.5942 202.886 25.6052 202.91 25.641L203.167 26.0034C203.198 26.0484 203.197 26.0918 203.162 26.1335L202.929 26.4079C202.897 26.4461 202.894 26.487 202.919 26.5304C203.02 26.7056 203.004 26.9034 202.872 27.1237C201.796 28.917 200.597 30.5558 199.276 32.0403C198.582 32.82 197.242 34.0424 196.165 34.2108C195.322 34.3423 194.534 34.429 193.961 33.8319C192.622 32.432 193.93 29.1462 194.622 27.601C195.023 26.7077 195.66 25.7252 196.161 24.772C196.193 24.7095 196.24 24.5372 196.244 24.4759C196.247 24.4386 196.239 24.4014 196.222 24.3682C196.204 24.3351 196.178 24.3073 196.146 24.288C196.114 24.2686 196.078 24.2584 196.04 24.2585C196.003 24.2585 195.966 24.2689 195.934 24.2884C195.628 24.4721 195.337 24.652 195.082 24.9047C193.385 26.5827 191.873 28.6141 191.042 30.8702C190.778 31.5822 190.293 32.575 190.066 33.495C190.06 33.5156 190.051 33.535 190.038 33.5521C190.025 33.5692 190.009 33.5836 189.99 33.5945C189.808 33.6991 189.679 33.8514 189.601 34.0513C189.584 34.0939 189.555 34.1241 189.513 34.1419C189.01 34.3576 188.366 34.4239 187.946 33.999C187.599 33.6494 187.331 33.4873 187.423 32.8659C187.477 32.5035 187.551 32.1505 187.645 31.8068C187.647 31.799 187.646 31.7909 187.643 31.7836C187.64 31.7762 187.635 31.7701 187.628 31.7661C187.621 31.7621 187.613 31.7604 187.605 31.7613C187.597 31.7622 187.59 31.7656 187.584 31.7711C186.032 33.3125 183.96 34.586 181.764 34.4201C180.392 34.3163 179.532 33.606 179.185 32.2891C179.172 32.2415 179.15 32.236 179.117 32.2725C178.61 32.8382 178.189 33.2449 177.853 33.4924C175.033 35.5724 172.488 33.9467 173.222 30.5154C173.575 28.8608 174.152 27.185 174.954 25.4878C175.025 25.3364 175.003 25.1888 174.887 25.045C174.859 25.011 174.825 25.0034 174.785 25.0221C174.023 25.3794 173.49 26.1769 173.043 26.857C171.6 29.0569 170.445 30.8153 169.507 32.8404C169.489 32.8798 169.458 32.9108 169.418 32.9271C169.169 33.0318 168.885 33.204 168.624 33.2028C167.428 33.1951 167.352 31.9369 167.674 31.0731C168.251 29.518 168.778 27.9459 169.252 26.3568C169.381 25.9281 169.428 25.5465 169.391 25.1331C169.388 25.0925 169.374 25.0534 169.351 25.0197C169.328 24.9859 169.297 24.9586 169.261 24.9402C169.224 24.9218 169.184 24.913 169.143 24.9146C169.102 24.9162 169.062 24.9281 169.028 24.9493C168.556 25.2352 168.177 25.6091 167.824 26.0863C166.231 28.2492 165.341 30.5014 164.311 33.0905C164.167 33.4516 163.985 33.7566 163.784 34.0756C163.762 34.1122 163.732 34.1394 163.693 34.1572C163.239 34.3665 162.798 34.3691 162.369 34.1649C161.712 33.851 161.722 32.8608 161.947 32.2904C163.178 29.1667 164.13 26.1935 165.095 23.0991C165.28 22.5032 165.664 21.4632 166.242 21.1787C166.74 20.9337 167.271 21.06 167.625 21.4862C168.257 22.2442 167.556 23.1386 167.186 23.9604C167.183 23.9684 167.182 23.9774 167.184 23.9859C167.187 23.9944 167.191 24.0019 167.198 24.0073C167.205 24.0128 167.213 24.0157 167.222 24.0158C167.23 24.0158 167.238 24.013 167.245 24.0076C167.716 23.6516 168.046 23.191 168.617 22.7839C169.536 22.1268 170.907 21.9519 171.374 23.2828C171.607 23.9464 171.34 24.9162 171.133 25.6269C171.132 25.6344 171.133 25.6422 171.136 25.6491C171.139 25.656 171.145 25.6615 171.152 25.6649C171.159 25.6683 171.166 25.6692 171.174 25.6677C171.181 25.6661 171.188 25.6621 171.193 25.6563C171.605 25.0782 172.012 24.4223 172.472 23.9464C173.189 23.2037 174.275 22.3335 175.327 22.2135C175.9 22.1497 176.404 22.1153 176.884 22.4879C178.185 23.4985 177.581 24.897 177.034 26.1922C176.463 27.544 175.977 28.9255 175.578 30.3368C175.437 30.8344 175.41 31.3266 175.497 31.8132C175.504 31.8536 175.52 31.8922 175.543 31.9264C175.566 31.9606 175.595 31.9897 175.63 32.012C175.665 32.0343 175.703 32.0492 175.744 32.0558C175.785 32.0624 175.826 32.0606 175.866 32.0505C176.188 31.9688 176.523 31.8132 176.776 31.5682C177.841 30.5312 178.769 29.3857 179.559 28.1318C180.056 27.3419 180.522 26.3594 180.987 25.4623C181.494 24.4849 182.223 23.5763 183.174 22.7367C184.071 21.9456 186.056 20.6963 187.177 21.6151C188.638 22.8145 187.594 24.8166 186.895 26.131C186.261 27.3215 183.908 30.4031 182.284 28.7966C182.277 28.7898 182.269 28.7848 182.26 28.7818C182.25 28.7789 182.24 28.7781 182.231 28.7796C182.221 28.7811 182.212 28.7848 182.205 28.7904C182.197 28.796 182.191 28.8034 182.186 28.8119C181.788 29.5699 181.31 31.0526 181.627 31.8757C181.854 32.4627 183.035 32.2789 183.472 32.0939C185.965 31.0412 187.611 29.025 189.199 27.0293C189.363 26.8243 189.491 26.5908 189.581 26.3287C190.594 23.4083 191.682 20.5172 192.844 17.6555C193.202 16.7725 193.207 15.7504 194.488 15.7912C195.278 15.815 195.737 16.2025 195.867 16.9537C195.969 17.5432 195.574 18.1072 195.364 18.6444C194.581 20.6436 193.774 22.6325 192.942 24.6112C192.893 24.7277 192.864 24.8009 192.855 24.8307ZM185.505 23.6299C184.607 23.9145 183.488 25.5453 183.058 26.3185C182.895 26.6095 182.839 26.8813 182.891 27.1339C182.902 27.1858 182.933 27.2062 182.984 27.1952C184.241 26.9323 185.226 25.322 185.748 24.1799C185.837 23.9847 185.8 23.7831 185.637 23.6542C185.597 23.6227 185.554 23.6146 185.505 23.6299Z" fill="#202020"/>
<path d="M144.142 31.9172C142.954 33.1319 140.18 35.9226 138.359 34.6275C136.045 32.9852 139.339 27.7037 140.351 26.092C140.667 25.588 141.064 25.1261 141.442 24.6412C141.455 24.6245 141.463 24.6038 141.464 24.5824C141.464 24.5609 141.458 24.5397 141.446 24.5222C141.433 24.5047 141.415 24.4917 141.395 24.4853C141.374 24.4789 141.352 24.4794 141.332 24.4868L139.19 25.2167C139.155 25.2286 139.127 25.2498 139.108 25.2805C138.577 26.1082 138.042 26.9338 137.503 27.7573C137.246 28.149 136.996 28.3851 136.551 28.4336C135.808 28.514 135.64 27.7509 135.891 27.2162C136.217 26.5238 136.571 25.8453 136.954 25.1809C136.983 25.129 136.968 25.1048 136.909 25.1082C135.448 25.1822 134.718 24.1652 135.166 22.8547C135.597 21.5948 136.527 20.8641 137.957 20.6625C138.761 20.5489 139.659 20.8705 139.706 21.7982C139.72 22.0674 139.611 22.389 139.548 22.6506C139.502 22.8437 139.571 22.9011 139.754 22.8228C140.565 22.477 142.655 21.6004 143.477 21.8581C144.526 22.1861 144.449 23.517 144.072 24.3464C143.677 25.2167 143.347 25.8207 143.081 26.1584C141.808 27.7739 140.841 29.6445 140.116 31.5305C139.785 32.388 140.491 32.3855 141.027 32.1034C141.557 31.8253 142.086 31.1707 142.516 30.7457C143.579 29.6943 144.463 28.3876 145.39 27.2111C146.182 26.203 146.663 24.7433 147.045 23.531C147.166 23.1482 147.152 22.6327 147.384 22.1925C147.404 22.155 147.434 22.1295 147.475 22.1159C147.784 22.0176 148.147 21.8735 148.448 21.8926C149.069 21.9334 149.413 22.4732 149.527 23.0346C149.677 23.7875 149.123 25.0903 148.799 25.7743C147.969 27.525 147.278 29.2796 146.691 31.1273C146.645 31.2728 146.663 31.4259 146.661 31.5777C146.659 31.6977 146.718 31.7534 146.837 31.7449C147.49 31.7015 149.203 29.6343 149.647 29.0869C151.177 27.1984 152.213 24.9206 153.107 22.6008C153.453 21.7059 154.109 21.3766 155.075 21.6131C155.111 21.6216 155.142 21.6404 155.167 21.6693C155.62 22.2103 155.711 22.7935 155.44 23.4187C154.08 26.5425 152.835 29.0958 152.034 31.8738C151.709 33.0043 151.371 34.1404 151.018 35.2821C151.014 35.2961 151.013 35.311 151.016 35.3255C151.019 35.34 151.026 35.3534 151.035 35.3647C151.045 35.3759 151.057 35.3845 151.071 35.3897C151.085 35.3949 151.101 35.3965 151.115 35.3944C152.609 35.174 154.123 35.0256 155.658 34.949C156.278 34.9171 156.724 34.8584 157.335 35.0549C158.472 35.4211 158.547 36.2263 157.571 36.8924C157.538 36.9145 157.501 36.926 157.46 36.9269C155.03 36.9669 152.615 37.1778 150.213 37.5598C150.155 37.5691 150.111 37.5998 150.083 37.6517C148.834 39.9996 147.073 42.4151 144.81 43.8711C144.202 44.2628 143.48 44.5091 142.77 44.8115C141.872 45.1943 141.035 45.2237 140.025 45.1777C138.06 45.0871 136.511 43.7639 136.557 41.7056C136.599 39.8477 138.275 38.2705 139.922 37.6389C142.649 36.5913 145.492 36.1919 148.351 35.6878C148.392 35.6802 148.42 35.6572 148.434 35.6189C148.679 34.9648 148.898 34.305 149.092 33.6398C149.19 33.2978 149.176 32.8984 149.31 32.5233C149.314 32.5127 149.314 32.5011 149.31 32.4904C149.306 32.4798 149.299 32.4707 149.29 32.4646C149.28 32.4585 149.269 32.4559 149.258 32.457C149.247 32.4582 149.236 32.4631 149.228 32.4709C148.179 33.5377 147.209 34.4922 145.611 34.4335C144.408 34.3888 144.077 32.8997 144.203 31.9478C144.213 31.8763 144.193 31.8661 144.142 31.9172ZM137.053 23.2541L137.347 23.3868C137.375 23.3993 137.406 23.4003 137.435 23.3895C137.463 23.3788 137.486 23.3572 137.499 23.3294L137.76 22.7475C137.801 22.6559 137.815 22.5564 137.798 22.471C137.781 22.3856 137.735 22.3212 137.67 22.292L137.658 22.2869C137.593 22.2577 137.514 22.266 137.439 22.31C137.364 22.354 137.299 22.4301 137.258 22.5217L136.996 23.1023C136.983 23.13 136.983 23.1616 136.993 23.1901C137.004 23.2186 137.026 23.2416 137.053 23.2541ZM139.369 41.9226C139.81 42.7112 141.036 42.7852 141.818 42.5785C142.839 42.3092 144.091 41.513 144.849 40.9094C145.465 40.4181 146.638 39.1268 147.097 38.1761C147.101 38.1676 147.103 38.1582 147.102 38.1488C147.101 38.1394 147.098 38.1304 147.092 38.1229C147.086 38.1153 147.079 38.1095 147.07 38.1061C147.061 38.1026 147.052 38.1017 147.042 38.1034C145.784 38.3203 144.532 38.5725 143.286 38.8601C142.091 39.1357 140.261 39.6959 139.498 40.7869C139.216 41.191 139.173 41.5695 139.369 41.9226Z" fill="#202020"/>
<path d="M117.478 24.7105C117.413 24.9351 117.45 24.9538 117.59 24.7667C118.351 23.7484 119.293 22.6893 120.371 22.0602C121.194 21.5804 122.295 21.4145 123.022 22.1814C124.135 23.3567 123.347 24.722 122.719 25.9164C121.762 27.7373 120.837 29.4574 120.311 31.5233C120.244 31.7862 120.3 31.9814 120.478 32.109C120.515 32.1354 120.555 32.1396 120.597 32.1218C120.928 31.9797 121.166 31.8372 121.31 31.6943C122.338 30.6752 123.287 29.588 124.156 28.4327C124.323 28.2099 124.474 27.9381 124.607 27.6174C125.306 25.9423 126.359 24.52 127.767 23.3503C129.373 22.013 131.715 21.5919 132.249 24.306C132.257 24.3452 132.271 24.3473 132.29 24.3124C132.549 23.8564 132.748 23.3767 132.889 22.873C132.903 22.8237 132.936 22.7956 132.987 22.7888C133.172 22.7633 133.316 22.6689 133.417 22.5055C133.443 22.4639 133.48 22.443 133.529 22.443C133.89 22.4392 134.195 22.4634 134.443 22.7646C134.684 23.0555 134.983 23.3796 134.865 23.8045C134.688 24.4477 134.569 25.1329 134.342 25.7403C132.958 29.4446 132.166 32.035 131.193 35.234C131.177 35.2842 131.195 35.3063 131.248 35.3004C132.691 35.1387 134.129 35.0043 135.565 34.8972C136.407 34.8346 137.775 34.892 137.905 35.9792C137.91 36.0226 137.901 36.0634 137.877 36.1017L137.438 36.8036C137.413 36.841 137.38 36.8665 137.337 36.8801C137.229 36.9141 137.093 36.9316 136.93 36.9324C134.987 36.9401 132.842 37.1077 130.495 37.4352C130.409 37.448 130.272 37.5768 130.222 37.67C129.295 39.3654 128.248 40.8384 127.081 42.0889C125.171 44.1344 122.23 45.6784 119.386 45.0799C117.279 44.6371 116.086 42.4806 116.97 40.4709C117.89 38.3833 119.825 37.596 121.939 37.0103C124.143 36.3978 126.251 36.0724 128.434 35.6768C128.474 35.67 128.506 35.6496 128.529 35.6156C128.644 35.4471 128.723 35.2957 128.766 35.1613C129.073 34.1889 129.388 33.2196 129.71 32.2532C129.726 32.203 129.713 32.1936 129.671 32.2251C128.416 33.1592 127.094 34.462 125.338 34.1647C124.399 34.0056 123.833 33.3906 123.639 32.3196C123.63 32.2702 123.609 32.2634 123.574 32.2991C122.909 32.992 121.868 33.9516 120.916 34.1711C118.588 34.7096 117.541 33.1975 118.033 31.0741C118.485 29.1192 119.187 27.232 120.306 25.554C120.516 25.2392 120.681 24.9083 120.801 24.5612C120.807 24.5427 120.809 24.5228 120.805 24.5035C120.801 24.4843 120.792 24.4664 120.778 24.4518C120.765 24.4372 120.748 24.4264 120.729 24.4205C120.71 24.4146 120.69 24.4139 120.671 24.4183C120.512 24.4549 120.368 24.5242 120.239 24.6263C117.275 26.9844 115.745 29.9857 114.7 33.556C114.689 33.5943 114.665 33.6224 114.629 33.6403C114.469 33.7185 114.36 33.838 114.303 33.9988C114.289 34.0397 114.262 34.0703 114.224 34.0907C113.858 34.2847 113.484 34.3446 113.101 34.2706C112.537 34.1622 112.476 33.6058 112.272 33.1771C112.253 33.1362 112.226 33.1298 112.191 33.1579C111.387 33.7985 110.481 34.075 109.475 33.9873C109.095 33.9542 108.795 33.8385 108.573 33.6403C107.885 33.0278 107.815 31.7134 107.966 30.9185C107.997 30.7585 108.007 30.628 107.996 30.5267C107.987 30.4561 107.961 30.4485 107.917 30.5038C106.934 31.7096 105.501 33.4067 103.943 33.6441C102.795 33.8189 101.858 33.1171 101.755 31.9291C101.581 29.9614 102.825 27.8432 103.647 26.0708C104.068 25.1623 104.464 23.9666 104.984 22.9483C105.112 22.6982 105.22 22.3269 105.382 22.0296C105.626 21.5855 106.334 21.5141 106.784 21.5842C106.825 21.5902 106.856 21.6115 106.877 21.648C107.096 22.036 107.55 22.0653 107.584 22.5961C107.609 23.0232 107.522 23.4141 107.322 23.7688C106.388 25.4251 105.759 26.89 105.001 28.4659C104.637 29.2226 104.434 29.8338 104.243 30.5943C104.236 30.6223 104.236 30.6516 104.243 30.6796C104.25 30.7076 104.263 30.7333 104.283 30.7546C104.303 30.7758 104.327 30.7917 104.354 30.801C104.382 30.8102 104.411 30.8124 104.439 30.8074C104.899 30.7283 105.55 30.0342 105.857 29.6833C106.764 28.6509 107.622 27.7194 108.375 26.4319C109.123 25.1533 109.923 23.4332 110.852 21.9887C110.877 21.9488 110.913 21.9271 110.96 21.9237C111.05 21.9177 111.12 21.873 111.171 21.7897C111.193 21.754 111.223 21.7289 111.262 21.7144C112.402 21.3112 113.196 22.332 112.686 23.3822C111.55 25.7301 110.455 28.0729 110.094 30.6211C110.046 30.9606 110.065 31.2877 110.15 31.6024C110.158 31.6346 110.178 31.6629 110.205 31.6826C110.232 31.7024 110.264 31.7123 110.298 31.7109C111.639 31.6535 113.725 28.5042 114.072 27.3277C114.524 25.7956 115.03 24.2822 115.589 22.7875C115.786 22.2627 115.973 21.9173 116.151 21.7514C116.723 21.2167 117.941 21.4834 118.115 22.3435C118.228 22.9049 117.639 24.1542 117.478 24.7105ZM126.311 31.6675C127.059 32.3527 128.966 30.038 129.382 29.5557C130.033 28.8015 132.035 25.6357 130.671 24.9249C129.607 24.3711 128.091 26.3388 127.663 27.1006C127.244 27.847 125.603 31.0167 126.311 31.6675ZM119.925 42.7001C121.617 43.3675 124.383 41.5172 125.568 40.3701C126.198 39.7601 126.75 38.9511 127.254 38.1944C127.256 38.1904 127.258 38.1856 127.258 38.1807C127.258 38.1759 127.257 38.171 127.254 38.1669C127.252 38.1627 127.248 38.1594 127.244 38.1572C127.239 38.1551 127.234 38.1543 127.229 38.1549C125.799 38.342 124.392 38.613 123.011 38.9677C121.726 39.2982 120.081 39.8622 119.318 40.9622C118.814 41.6908 119.152 42.3952 119.925 42.7001Z" fill="#202020"/>
</svg>
