<svg width="32" height="32" viewBox="0 0 32 32" fill="none" xmlns="http://www.w3.org/2000/svg">
<g clip-path="url(#clip0_10312_69588)">
<path d="M12.2132 6.92136C11.2404 6.96726 10.5761 7.12251 9.99533 7.35071C9.39427 7.58495 8.88483 7.89928 8.37795 8.40799C7.87107 8.9167 7.55894 9.42651 7.32634 10.0285C7.10125 10.6105 6.94874 11.2754 6.90577 12.2487C6.8628 13.2221 6.85329 13.5349 6.85805 16.0178C6.8628 18.5006 6.87377 18.8118 6.92095 19.7872C6.96739 20.7598 7.12209 21.4239 7.3503 22.0049C7.5849 22.6059 7.89887 23.1152 8.40776 23.6223C8.91665 24.1293 9.42609 24.4407 10.0295 24.6737C10.611 24.8984 11.2761 25.0517 12.2492 25.0943C13.2224 25.1369 13.5356 25.1467 16.0177 25.142C18.4998 25.1372 18.8123 25.1263 19.7875 25.08C20.7627 25.0337 21.4233 24.8779 22.0045 24.6508C22.6055 24.4157 23.1151 24.1023 23.6218 23.5932C24.1285 23.0841 24.4405 22.5739 24.6729 21.9716C24.8982 21.3901 25.0512 20.7251 25.0935 19.7526C25.1361 18.7767 25.1461 18.4651 25.1414 15.9827C25.1366 13.5002 25.1255 13.189 25.0792 12.214C25.0329 11.239 24.8781 10.5769 24.65 9.99556C24.4151 9.39451 24.1015 8.88562 23.5928 8.37819C23.0841 7.87076 22.5735 7.55899 21.9714 7.32712C21.3895 7.10203 20.7248 6.94861 19.7517 6.90655C18.7785 6.8645 18.4653 6.85371 15.9823 6.85846C13.4992 6.86322 13.1884 6.87382 12.2132 6.92136ZM12.32 23.4495C11.4286 23.4107 10.9445 23.2626 10.622 23.1386C10.1948 22.974 9.89055 22.7751 9.56909 22.4567C9.24762 22.1384 9.05014 21.833 8.88337 21.4068C8.75811 21.0842 8.60726 20.6007 8.56557 19.7093C8.52022 18.7458 8.51071 18.4565 8.50541 16.0156C8.5001 13.5746 8.50943 13.2857 8.55167 12.3219C8.5897 11.4312 8.73873 10.9466 8.86253 10.6242C9.0271 10.1965 9.22531 9.89279 9.5444 9.57151C9.86349 9.25023 10.1679 9.05238 10.5945 8.88562C10.9167 8.75981 11.4002 8.61023 12.2913 8.56781C13.2555 8.5221 13.5444 8.51295 15.985 8.50765C18.4256 8.50235 18.7152 8.51149 19.6798 8.55391C20.5705 8.59268 21.0553 8.74024 21.3773 8.86477C21.8046 9.02934 22.1087 9.22701 22.43 9.54665C22.7513 9.86628 22.9493 10.1696 23.1161 10.5972C23.242 10.9184 23.3916 11.4017 23.4337 12.2933C23.4796 13.2575 23.49 13.5466 23.4944 15.9871C23.4988 18.4275 23.4902 18.7173 23.4479 19.6808C23.409 20.5722 23.2612 21.0564 23.1371 21.3793C22.9725 21.8063 22.7741 22.1108 22.4548 22.4319C22.1356 22.753 21.8315 22.9508 21.4047 23.1176C21.0829 23.2432 20.5988 23.3931 19.7085 23.4356C18.7443 23.4809 18.4554 23.4904 16.0139 23.4957C13.5724 23.501 13.2844 23.4911 12.3202 23.4495M19.7734 11.1137C19.7738 11.3307 19.8385 11.5428 19.9594 11.723C20.0802 11.9032 20.2519 12.0436 20.4525 12.1263C20.6531 12.209 20.8738 12.2303 21.0865 12.1876C21.2993 12.1449 21.4946 12.04 21.6478 11.8863C21.801 11.7325 21.9051 11.5368 21.947 11.3239C21.989 11.111 21.9668 10.8904 21.8834 10.6901C21.8 10.4898 21.659 10.3187 21.4783 10.1985C21.2977 10.0783 21.0854 10.0143 20.8684 10.0148C20.5775 10.0153 20.2987 10.1314 20.0934 10.3375C19.888 10.5436 19.7729 10.8228 19.7734 11.1137ZM11.3053 16.0094C11.3104 18.6023 13.4162 20.6995 16.0086 20.6945C18.6009 20.6896 20.6996 18.584 20.6947 15.9911C20.6897 13.3982 18.5834 11.3004 15.9907 11.3055C13.3979 11.3107 11.3004 13.4168 11.3053 16.0094ZM12.9521 16.0061C12.9509 15.4033 13.1285 14.8137 13.4624 14.3119C13.7963 13.81 14.2715 13.4184 14.8279 13.1867C15.3844 12.9549 15.997 12.8933 16.5885 13.0098C17.1799 13.1262 17.7235 13.4154 18.1506 13.8407C18.5776 14.2661 18.869 14.8086 18.9877 15.3996C19.1065 15.9905 19.0474 16.6034 18.8178 17.1608C18.5882 17.7181 18.1985 18.1949 17.698 18.5307C17.1975 18.8666 16.6086 19.0465 16.0058 19.0477C15.6056 19.0486 15.2091 18.9705 14.839 18.8181C14.4689 18.6657 14.1325 18.4419 13.8489 18.1595C13.5654 17.877 13.3402 17.5414 13.1863 17.172C13.0325 16.8025 12.9529 16.4063 12.9521 16.0061Z" fill="#3577D5"/>
</g>
<circle cx="16" cy="15.9998" r="15.4286" stroke="#D4D4D8" stroke-width="1.14286"/>
<defs>
<clipPath id="clip0_10312_69588">
<rect width="18.2857" height="18.2857" fill="white" transform="translate(6.85693 6.85693)"/>
</clipPath>
</defs>
</svg>
