<svg width="32" height="32" viewBox="0 0 32 32" fill="none" xmlns="http://www.w3.org/2000/svg">
<circle cx="16" cy="15.9998" r="15.4286" stroke="#D4D4D8" stroke-width="1.14286"/>
<path fill-rule="evenodd" clip-rule="evenodd" d="M14.2857 12.8367H16.7617V14.07C17.1183 13.3607 18.033 12.7233 19.407 12.7233C22.041 12.7233 22.6663 14.1353 22.6663 16.726V21.524H19.9997V17.316C19.9997 15.8407 19.643 15.0087 18.735 15.0087C17.4757 15.0087 16.9523 15.9053 16.9523 17.3153V21.524H14.2857V12.8367ZM9.71301 21.4107H12.3797V12.7233H9.71301V21.4107ZM12.7617 9.89067C12.7618 10.1142 12.7174 10.3355 12.6313 10.5417C12.5451 10.748 12.4188 10.935 12.2597 11.092C11.9373 11.4124 11.5009 11.5918 11.0463 11.5907C10.5926 11.5904 10.1572 11.4115 9.83434 11.0927C9.67582 10.9351 9.54993 10.7479 9.4639 10.5416C9.37788 10.3354 9.33339 10.1142 9.33301 9.89067C9.33301 9.43934 9.51301 9.00734 9.83501 8.68867C10.1576 8.36945 10.5932 8.19047 11.047 8.19067C11.5017 8.19067 11.9377 8.37001 12.2597 8.68867C12.581 9.00734 12.7617 9.43934 12.7617 9.89067Z" fill="#3577D5"/>
</svg>
